<?xml version="1.0" encoding="UTF-8"?><svg id="Background_copy_2_Image" xmlns="http://www.w3.org/2000/svg" viewBox="0 0 709.89737 600.00482"><path d="m414.88639,0h8.99754c3.60357,2.49206,8.0336,1.46851,11.97139,2.88493,8.05724,2.89818,14.30077,8.77013,21.76351,12.63237,2.36395,1.22341,3.86768,1.26504,6.24365.59447,3.72261-1.05064,6.14498-4.13486,9.8705-5.22219,12.66853-3.69738,24.8595-1.75898,36.88291,2.55322,8.84795,3.17333,15.08263,8.87574,16.26853,18.71345.31138,2.58277,1.7973,3.39035,3.66416,2.67267,6.0922-2.34199,11.80091-1.7388,18.11253-.16064,5.58252,1.39584,9.35614,3.86908,11.94271,8.63,1.48812,2.73922,2.7465,5.60387,4.09257,8.41956.89349,1.86899,2.14114,3.95639,4.36257,3.17136,6.56815-2.32114,12.40475.05046,18.5036,1.87481,2.57565.77045,5.33643.51163,7.88035,2.12763,5.94131,3.77423,9.04592,9.1631,10.44093,15.86466.60353,2.89934.64783,6.89431,5.69162,4.35853.9716-.48847,1.58605,1.02596,2.40339,1.40279,4.45142,2.05226,6.88685,6.24638,10.32493,9.36224,5.01797,4.54758,7.10456,9.50854,3.72554,16.06493-.75333,1.46156-2.58084,3.65588-.36025,5.38576,1.69363,1.31938,3.61614.70776,5.57904-.07574,6.78074-2.7066,13.34876-1.79256,18.96649,2.68372,4.74608,3.78166,8.8038,8.37663,11.58472,13.91773,2.51713,5.01532,4.86311,10.08276,4.00281,15.92684-.59322,4.03018-4.42243,5.51091-6.68237,8.23069-1.06746,1.28464-2.16933,2.23926-.29838,4.04189,5.80206,5.59012,11.49838,11.03854,19.02348,14.60481,9.50698,4.50551,12.24262,18.55971,8.0285,26.40244-3.20164,5.9585-.74845,12.84481,4.5723,17.22309,8.47839,6.97654,13.67954,15.64117,13.43193,27.14609-.17701,8.22483-4.38893,14.15283-9.7477,19.65337-3.51472,3.60775-3.48592,4.57333,1.11993,6.60698,3.01138,1.32958,5.90177,2.9053,6.44221,6.13633,1.01077,6.0427,1.57299,12.3755-2.33188,17.68405-2.58053,3.50817-1.50166,5.66327.93596,8.54004,4.11148,4.85221,6.84377,10.54705,7.49587,16.97333,1.07954,10.63919-6.35818,17.41216-12.04791,24.69331-3.45901,4.4265-4.14102,7.03397-.44769,11.19666,6.20228,6.99056,10.0105,15.39484,2.78543,24.6462-3.28597,4.20757-5.93295,8.66787-10.71874,11.53097-4.6814,2.80062-4.54886,4.39739-.58315,8.44107,1.51899,1.5489,2.19569,3.52004,2.09647,5.83875-.17079,3.99035.36782,8.04855-.14657,11.97944-1.33893,10.23151-5.24936,19.67398-15.15119,23.84131-8.80752,3.70687-11.06789,11.98371-15.20165,18.61705-2.56454,4.11519-4.18379,5.05658-8.31443,4.19988-2.88922-.59921-4.89789-.03566-3.83653,4.02193,1.03237,3.94663,1.55261,8.25552-.29325,12.12002-3.35553,7.02509-9.09181,12.08412-15.37341,16.31814-4.86152,3.27692-10.13358.44685-15.19085-.39356-1.16063-.19287-2.51481-.72381-3.20713.36027-.69262,1.08475-.70897,2.50381.43128,3.62645,2.68719,2.64564,3.0062,6.24869,2.08561,9.32096-2.68585,8.96413-7.36139,16.88187-15.9371,21.37139-3.20023,1.67539-6.67164,4.42241-10.32017,3.80077-4.17378-.71121-8.60958-1.73396-12.02582-4.7735-.94566-.84136-2.067-1.41277-3.0865-.61254-.86872.6818-.242,1.74226.06712,2.71566,1.20389,3.78985,2.8819,8.01871,1.00217,11.58378-5.0065,9.49543-16.75731,23.21387-31.86609,18.46533-3.27553-1.02953-5.60613-.03466-6.43043,4.14783-1.5683,7.9577-5.96083,13.80185-13.85216,17.04804-3.89951,1.60406-7.83611,3.43376-11.8435,4.18286-4.44635.83129-9.81421,2.62486-12.97688-3.37506-1.14449-2.17133-3.05879-2.87168-4.98759-.17768-2.90728,4.06089-7.19194,6.30794-11.99016,6.68587-6.52849.51437-13.41738,1.93422-19.53811-.86204-3.35803-1.5342-6.43339-2.95692-10.10462-2.95875-.29695-2.89828,1.74055-4.07284,3.83699-5.21623,5.11533-2.78991,10.32911-5.41673,15.32106-8.41276,33.02346-19.81978,49.0941-49.09856,48.99379-87.55039-.02142-8.20945-.83278-16.41631,1.61723-24.69581,1.17827-3.98193,2.7213-9.84149-3.51851-12.98899-9.28969-4.68588-11.10252-15.36719-4.45551-23.28883,1.92812-2.29782,4.66327-3.31493,7.90622-5.73042-3.13165.14046-4.8794-6.44824-7.32441.59851-.80703,2.32604-4.64689,2.47785-7.31562.08622-8.34525-7.4786-11.82815-16.48907-9.13336-27.58033.3857-1.58759.40773-3.35792-1.35522-3.76978-5.88218-1.37415-7.8586-6.71061-11.50219-10.44085-3.63478-3.72124-6.34586-9.69386-13.98168-6.86895-6.17601,2.28485-13.02921-1.3851-15.91382-7.38973-1.27635-2.65678-2.84483-4.37082-5.91229-4.51003-3.29176-.14937-5.26723,1.43321-6.54041,4.34955-1.59487,3.6532-4.5326,5.87002-8.43589,6.22746-5.79028.53017-11.59219.67179-17.30395-1.05037-3.66947-1.10641-6.39608-3.04325-8.13776-6.54743-2.19584-4.41789-6.18889-4.60778-10.32893-3.70241-2.28136.49887-3.39131,2.6256-4.61635,4.37112-3.47009,4.9444-8.70352,8.75158-14.07409,7.87505-5.41081-.88309-11.26629-2.89157-16.0606-6.3576-.82994-.60004-1.13735-1.95869-1.61577-2.99923-.506-1.10061-1.01883-2.11428-2.50197-1.83183-1.84501,4.19253-.3065,9.33469-3.74144,13.0321-4.50075,4.84461-9.78281,8.72324-16.25455,10.11341-5.45215,1.17109-11.25165,2.01955-15.39627-3.60354-1.85612-2.51821-2.16082-5.5297-3.08381-8.3256-1.63475-4.95185-8.78684-6.97146-12.4269-3.26313-7.27856,7.41511-21.20461,10.20743-29.34054,5.61134-3.64637-2.05988-5.22339-5.4268-7.38046-8.53861-3.35354-4.83781-8.36651-4.87509-11.47092-.07597-2.08415,3.22191-5.01965,4.74952-8.74667,4.70354-2.9575-.03652-5.89478.27436-8.87054-.74477-2.15246-.73711-4.42378-.53344-5.9388,2.14927-4.85852,8.60325-12.7045,12.31137-22.23442,13.7941-3.94956.6145-7.55328-.05787-11.4623-.97764.27946,2.3261,1.91447,2.85099,2.86312,3.89471,8.32211,9.15609,9.08441,14.89325,3.83939,24.59608-4.11103,7.60502-6.40122,15.15266-5.80784,23.68019.23497,3.37677-.11194,6.80571-2.29559,9.44812-8.47546,10.25643-6.72837,22.53827-6.40274,34.24195.254,9.12998,2.58181,18.18728,3.71407,27.31088,2.37545,19.14088,11.47847,34.72691,24.74882,48.29091,10.37053,10.60001,22.61167,18.53794,35.37802,25.82275,2.52369,1.44005,5.46466,2.72841,5.80386,6.2889-5.71639,2.18152-11.42725,5.13984-17.5722,4.85324-6.00527-.28013-12.84306.73226-17.05153-5.76233-1.54972-2.39154-3.87964-3.03075-6.24255-.62926-2.07849,2.11233-4.75872,2.45695-7.56421,2.72664-4.35295.41845-8.66337-.36488-12.73093-1.3085-6.55521-1.52083-13.65125-3.46707-16.52145-10.46193-2.23366-5.44352-5.64707-6.93372-10.95528-6.27096-6.62398.82702-11.80869-1.89169-14.41416-7.85525-2.05324-4.69954-5.1122-5.50594-9.59805-5.18859-4.91697.34785-9.60851-.24791-13.7405-3.75959-7.62882-6.48366-10.58971-13.81186-5.61313-23.21162.06398-.12081-.01574-.31777-.03785-.59985-1.80442-.74062-3.31837.0997-5.07077.64305-4.84409,1.5021-9.07295,5.63755-14.80304,3.61608-5.43667-1.91793-10.20469-4.81663-14.13122-9.07961-6.11546-6.63944-12.01621-13.26207-8.0194-23.44491.94115-2.39782-1.36141-2.19391-2.73228-2.03871-11.37775,1.28812-16.53286-7.16174-22.13815-14.47773-2.08605-2.72277-2.55463-6.25684-1.3796-10.17299,1.00773-3.35859,2.48702-6.6132,3.43166-10.42761-6.64399-.0526-13.8157,1.93623-17.43463-5.82945-3.75597-8.05975-9.24621-13.55522-17.78745-17.48834-8.88688-4.09228-12.56233-13.97172-14.47741-23.12967-1.11064-5.31105-2.3651-11.83975,2.46253-16.95969,4.50202-4.77463,4.51569-5.08758-1.18436-8.49583-7.65187-4.57538-10.41965-12.58058-14.43801-19.71406-.50229-.89166-.55211-2.51314-.07554-3.40173,2.52234-4.70314,3.39921-10.2755,7.50895-14.14787,2.66065-2.50698,2.94952-5.14097.57282-8.20543-4.93167-6.35867-10.935-11.95186-14.19112-19.52934v-8.99723c2.75019-6.32624,4.47406-13.18247,10.20326-17.89245,1.65647-1.36176,1.11877-3.60073.06212-5.43577-6.44657-11.19566-4.89775-18.16785,5.92101-25.68293,2.60357-1.80853,2.90915-3.98831.57945-5.51274-3.32134-2.17331-4.99876-5.58498-7.02083-8.5271-3.71687-5.40808-5.79409-12.49697-3.28303-18.26769,4.11666-9.46062,7.84721-20.08756,19.55076-23.62828,1.65939-.50203,2.22671-1.68129,2.04427-3.41233-.13912-1.32001.19799-2.68449-1.89696-2.71685-.64518-.00998-1.8404-.86883-1.82999-1.31684.12699-5.4648-3.15214-10.95176-1.9303-15.9299,2.30917-9.40832,7.43383-17.99371,17.8221-20.01652,6.91427-1.34636,10.63958-5.78872,14.79052-10.24592,1.99298-2.14003,1.57899-4.13043-1.26226-5.4054-6.83489-3.06705-9.28726-8.91834-6.7387-15.8679,2.63259-7.17869,6.30134-13.679,12.09793-18.82154,5.89996-5.23425,11.71508-10.08721,20.49601-5.571,2.47418,1.27253,5.94992-.19793,8.34795-1.44958,2.72816-1.42396.56992-4.42178-.19864-6.24465-1.33581-3.16825-.38914-5.56027.81982-8.35502,1.58257-3.65841,4.24946-6.3386,7.13238-8.7664,5.5027-4.63402,10.59572-10.60424,19.28285-6.07917,1.38486.72136,4.12895-.09285,5.32842-3.24825,3.38725-8.91074,7.5311-17.36504,18.28901-19.90507,3.84259-.90726,7.54531-.23576,11.29657-.58731,2.75025-.25774,4.61226-.52266,5.35701-4.17892,1.08944-5.34851,4.86962-10.01197,8.87892-13.17448,11.23305-8.86058,24.37939-7.81757,37.21555-4.3211,4.0973,1.11607,6.42454,1.39793,8.37736-2.71908,1.67721-3.53599,2.56869-8.02556,6.19203-9.90827,5.87931-3.05491,10.85692-7.95851,17.73587-9.02051,4.02716-.62172,8.26208-.617,12.04745-1.92474,6.40953-2.21431,12.6175-.57949,17.27025,2.64479,5.36752,3.71965,8.96596,2.18609,13.22428-.58012,12.99696-8.44284,33.10507-6.88662,44.52638,3.6242,2.07359,1.90831,3.33771,1.70615,5.42518-.05053,2.77369-2.33416,4.27154-5.71152,7.37762-7.78785,6.06551-4.05461,12.44123-7.36482,19.37174-9.6197h19.99452c7.19163,1.79459,13.83398,4.80168,18.92127,10.25914,2.68518,2.88051,4.53565,2.10584,6.3864-.31093,1.4941-1.95108,3.37075-3.48184,4.96434-5.21208,3.33222-3.61799,8.11612-2.51188,11.71649-4.73613Z" style="fill:#38180a;"/><path d="m452.7884,584.62703c-8.06093,2.68051-16.09603,5.44218-24.1897,8.02-9.08937,2.89486-18.49753,3.97314-27.92387,5.34058-22.63006,3.28299-45.30473,1.5431-67.9445,1.65788-18.2216.09244-35.99469-3.43876-52.82751-10.73767-4.52815-1.96345-9.4225-2.50137-13.97472-4.25559-.33844-3.56073-3.27941-4.8491-5.8031-6.28914-12.76636-7.28481-25.0075-15.22274-35.37802-25.82275-13.27035-13.56401-22.37337-29.15004-24.74882-48.29091-1.13226-9.1236-3.46007-18.18091-3.71407-27.31088-.32562-11.70368-2.07272-23.98552,6.40274-34.24195,2.18365-2.64241,2.53056-6.07135,2.29559-9.44812-.59337-8.52753,1.69682-16.07517,5.80784-23.68019,5.24502-9.70283,4.48272-15.43999-3.83939-24.59608-.94865-1.04372-2.58366-1.56861-2.86312-3.89471,3.90902.91976,7.51274,1.59213,11.4623.97764,9.52992-1.48273,17.3759-5.19085,22.23442-13.7941,1.51503-2.68271,3.78635-2.88638,5.9388-2.14927,2.97576,1.01913,5.91304.70825,8.87054.74477,3.72702.04598,6.66253-1.48163,8.74667-4.70354,3.10441-4.79912,8.11738-4.76184,11.47092.07597,2.15706,3.11181,3.73408,6.47872,7.38046,8.53861,8.13593,4.59609,22.06198,1.80377,29.34054-5.61134,3.64006-3.70833,10.79215-1.68872,12.4269,3.26313.923,2.79589,1.22769,5.80739,3.08381,8.3256,4.14462,5.62309,9.94412,4.77463,15.39627,3.60354,6.47174-1.39017,11.7538-5.2688,16.25455-10.11341,3.43494-3.69741,1.89642-8.83957,3.74144-13.0321,1.48314-.28244,1.99597.73122,2.50197,1.83183.47842,1.04054.78583,2.3992,1.61577,2.99923,4.79431,3.46604,10.64979,5.47451,16.0606,6.3576,5.37057.87653,10.604-2.93065,14.07409-7.87505,1.22504-1.74553,2.33499-3.87225,4.61635-4.37112,4.14004-.90536,8.13309-.71548,10.32893,3.70241,1.74168,3.50417,4.46829,5.44102,8.13776,6.54743,5.71175,1.72216,11.51366,1.58054,17.30395,1.05037,3.90329-.35743,6.84102-2.57425,8.43589-6.22746,1.27318-2.91634,3.24865-4.49892,6.54041-4.34955,3.06746.13921,4.63594,1.85325,5.91229,4.51003,2.88462,6.00462,9.73781,9.67458,15.91382,7.38973,7.63582-2.82491,10.3469,3.14771,13.98168,6.86895,3.64359,3.73024,5.62001,9.0667,11.50219,10.44085,1.76294.41186,1.74092,2.18219,1.35522,3.76978-2.69479,11.09126.78811,20.10173,9.13336,27.58033,2.66873,2.39163,6.50859,2.23982,7.31562-.08622,2.44501-7.04675,4.19276-.45805,7.32441-.59851-3.24295,2.41549-5.9781,3.4326-7.90622,5.73042-6.64701,7.92164-4.83419,18.60296,4.45551,23.28883,6.23981,3.1475,4.69677,9.00706,3.51851,12.98899-2.45001,8.2795-1.63865,16.48636-1.61723,24.69581.10031,38.45184-15.97033,67.73062-48.99379,87.55039-4.99195,2.99603-10.20573,5.62284-15.32106,8.41276-2.09644,1.14339-4.13394,2.31795-3.83699,5.21623Z" style="fill:#cc8147;"/></svg>